<?xml version="1.0" encoding="UTF-8" standalone="no" ?>
<!DOCTYPE svg PUBLIC "-//W3C//DTD SVG 1.1//EN" "http://www.w3.org/Graphics/SVG/1.1/DTD/svg11.dtd">
<svg xmlns="http://www.w3.org/2000/svg" xmlns:xlink="http://www.w3.org/1999/xlink" version="1.1" width="400" height="400" viewBox="0 0 400 400" xml:space="preserve">
<desc>Created with Fabric.js 3.6.2</desc>
<defs>
</defs>
<g transform="matrix(4.08 0 0 4.08 200 200)"  >
<path style="stroke: none; stroke-width: 1; stroke-dasharray: none; stroke-linecap: butt; stroke-dashoffset: 0; stroke-linejoin: miter; stroke-miterlimit: 4; fill: rgb(203,6,6); fill-rule: evenodd; opacity: 1;"  transform=" translate(-24.5, -32)" d="M 49 16.842 L 49 58.947 C 49 61.738 46.73 64 43.931 64 L 5.069 64 C 2.269 64 0 61.738 0 58.947 L 0 5.053 C 0 2.262 2.269 0 5.069 0 L 32.103 0 L 49 16.842 Z" stroke-linecap="round" />
</g>
<g transform="matrix(4.08 0 0 4.08 263.28 106.11)"  >
<path style="stroke: none; stroke-width: 1; stroke-dasharray: none; stroke-linecap: butt; stroke-dashoffset: 0; stroke-linejoin: miter; stroke-miterlimit: 4; fill: rgb(251,141,141); fill-rule: evenodd; opacity: 1;"  transform=" translate(-40, -9)" d="M 49 15.899 L 49 17.995 L 35.187 17.995 C 32.327 17.995 31.008 15.675 31.008 12.814 L 31.008 0 L 33.1 0 L 49 15.899 Z" stroke-linecap="round" />
</g>
<g transform="matrix(4.08 0 0 4.08 199.1 234.48)"  >
<path style="stroke: none; stroke-width: 1; stroke-dasharray: none; stroke-linecap: butt; stroke-dashoffset: 0; stroke-linejoin: miter; stroke-miterlimit: 4; fill: rgb(255,255,255); fill-rule: evenodd; opacity: 1;"  transform=" translate(-24.28, -40.45)" d="M 37.606 34.047 C 37.17 33.903 36.75 33.83 36.345 33.83 C 35.885 33.83 35.569 33.925 35.396 34.115 C 35.224 34.305 35.138 34.641 35.138 35.124 L 35.138 36.047 L 37.071 36.047 L 37.071 37.901 L 35.138 37.901 L 35.138 45.536 L 32.796 45.536 L 32.796 37.901 L 31.589 37.901 L 31.589 36.047 L 32.796 36.047 L 32.796 35.124 C 32.796 33.948 33.088 33.098 33.672 32.573 C 34.256 32.048 35.134 31.786 36.308 31.786 C 36.859 31.786 37.443 31.861 38.06 32.012 L 37.606 34.047 Z M 27.796 44.613 C 27.36 44.981 26.9 45.274 26.416 45.491 C 25.932 45.708 25.382 45.816 24.765 45.816 C 23.567 45.816 22.65 45.385 22.015 44.523 C 21.379 43.66 21.062 42.442 21.062 40.868 C 21.062 39.258 21.411 38.007 22.11 37.114 C 22.809 36.222 23.79 35.775 25.055 35.775 C 25.503 35.775 25.962 35.867 26.434 36.051 C 26.906 36.235 27.297 36.469 27.605 36.752 L 27.605 32.066 L 29.947 32.066 L 29.947 45.536 L 27.796 45.536 L 27.796 44.613 Z M 27.605 38.679 C 27.357 38.456 27.05 38.258 26.684 38.086 C 26.318 37.915 25.944 37.829 25.563 37.829 C 24.934 37.829 24.429 38.099 24.048 38.638 C 23.666 39.178 23.476 39.909 23.476 40.832 C 23.476 41.743 23.632 42.457 23.943 42.976 C 24.255 43.495 24.737 43.754 25.391 43.754 C 25.778 43.754 26.173 43.665 26.575 43.487 C 26.977 43.309 27.321 43.09 27.605 42.831 L 27.605 38.679 Z M 17.595 45.201 C 17.02 45.611 16.334 45.816 15.535 45.816 C 14.482 45.816 13.584 45.488 12.84 44.83 L 12.84 49.109 L 10.498 49.109 L 10.498 36.047 L 12.658 36.047 L 12.658 36.978 C 13.094 36.604 13.552 36.31 14.033 36.096 C 14.514 35.882 15.066 35.775 15.689 35.775 C 16.893 35.775 17.81 36.197 18.439 37.042 C 19.068 37.886 19.383 39.113 19.383 40.723 C 19.383 41.743 19.229 42.641 18.92 43.419 C 18.611 44.197 18.17 44.791 17.595 45.201 Z M 16.488 38.602 C 16.167 38.086 15.689 37.829 15.054 37.829 C 14.673 37.829 14.281 37.918 13.879 38.095 C 13.476 38.273 13.13 38.492 12.84 38.751 L 12.84 42.903 C 13.088 43.127 13.395 43.324 13.761 43.496 C 14.127 43.668 14.503 43.754 14.891 43.754 C 15.532 43.754 16.039 43.481 16.411 42.935 C 16.783 42.389 16.969 41.664 16.969 40.76 C 16.969 39.837 16.808 39.118 16.488 38.602 Z" stroke-linecap="round" />
</g>
</svg>